<svg xmlns="http://www.w3.org/2000/svg" viewBox="0 0 24 24" fill="none" stroke="currentColor" stroke-width="2" stroke-linecap="round" stroke-linejoin="round"><path d="M8 12a1 1 0 1 0 2 0a1 1 0 0 0-2 0"/><path d="M14 12a1 1 0 1 0 2 0a1 1 0 0 0-2 0"/><path d="M15.5 17c0 1 1.5 3 2 3c1.5 0 2.83-1.67 3.5-3c.67-1.67.5-5.83-1.5-11.5c-1.46-1.02-3-1.34-4.5-1.5l-.97 1.92a11.9 11.9 0 0 0-4.06 0L9 4c-1.5.16-3.04.48-4.5 1.5C2.5 11.17 2.33 15.33 3 17c.67 1.33 2 3 3.5 3c.5 0 2-2 2-3"/><path d="M7 16.5c3.5 1 6.5 1 10 0"/></svg>