<svg xmlns="http://www.w3.org/2000/svg" viewBox="0 0 100 100"><defs><linearGradient id="b" x1="0" y1="0" x2="1" y2="1"><stop stop-color="#58f7ff"/><stop offset=".48" stop-color="#00a8ff"/><stop offset="1" stop-color="#075dff"/></linearGradient><filter id="g" x="-80%" y="-80%" width="260%" height="260%"><feGaussianBlur stdDeviation="2.2" result="q"/><feColorMatrix in="q" values="0 0 0 0 0 0 0 0 0 .55 0 0 0 0 1 0 0 0 1 0" result="c"/><feMerge><feMergeNode in="c"/><feMergeNode in="SourceGraphic"/></feMerge></filter></defs><g filter="url(#g)" stroke-linecap="round" stroke-linejoin="round"><path d="M18 24c0-8 7-14 16-14h31c10 0 18 7 18 16v18c0 10-8 17-18 17H46L27 75l4-14c-8-1-13-7-13-15Z" fill="url(#b)" stroke="#7cf9ff" stroke-width="3"/><path d="M45 57c2 12 11 19 24 19h8l14 10-3-12c5-3 8-8 8-14V45c0-7-5-13-12-15" fill="#071a42" stroke="#5fefff" stroke-width="3"/><circle cx="39" cy="36" r="3" fill="#071a42"/><circle cx="52" cy="36" r="3" fill="#071a42"/><circle cx="65" cy="36" r="3" fill="#071a42"/></g></svg>